<svg preserveAspectRatio="none" width="100%" height="100%" overflow="visible" style="display: block;" viewBox="0 0 12 14" fill="none" xmlns="http://www.w3.org/2000/svg">
<path id="Union" d="M11.25 12.5C11.6642 12.5 12 12.8358 12 13.25C12 13.6642 11.6642 14 11.25 14H0.75C0.335786 14 0 13.6642 0 13.25C0 12.8358 0.335786 12.5 0.75 12.5H11.25ZM11.25 8C11.6642 8 12 8.33579 12 8.75C12 9.16421 11.6642 9.5 11.25 9.5H0.75C0.335786 9.5 0 9.16421 0 8.75C0 8.33579 0.335786 8 0.75 8H11.25ZM9.5 0C10.8807 0 12 1.11929 12 2.5C12 3.88071 10.8807 5 9.5 5H2.5L2.24414 4.9873C0.983608 4.85918 0 3.79434 0 2.5C0 1.20566 0.983608 0.140824 2.24414 0.0126953L2.5 0H9.5ZM2.5 1.5C1.94772 1.5 1.5 1.94772 1.5 2.5C1.5 3.05228 1.94772 3.5 2.5 3.5H9.5C10.0523 3.5 10.5 3.05228 10.5 2.5C10.5 1.94772 10.0523 1.5 9.5 1.5H2.5Z" fill="var(--fill-0, #1C3A13)"/>
</svg>
