<svg width="20" height="20" viewBox="0 0 20 20" fill="none" xmlns="http://www.w3.org/2000/svg">
  <path d="M10 1C10 1 12 4 10 6C8 4 10 1 10 1Z" fill="#1C3A13"/>
  <path d="M10 19C10 19 12 16 10 14C8 16 10 19 10 19Z" fill="#1C3A13"/>
  <path d="M1 10C1 10 4 8 6 10C4 12 1 10 1 10Z" fill="#1C3A13"/>
  <path d="M19 10C19 10 16 8 14 10C16 12 19 10 19 10Z" fill="#1C3A13"/>
  <path d="M3.5 3.5C3.5 3.5 6 4.5 6.5 7C4.5 6 3.5 3.5 3.5 3.5Z" fill="#1C3A13"/>
  <path d="M16.5 3.5C16.5 3.5 14 4.5 13.5 7C15.5 6 16.5 3.5 16.5 3.5Z" fill="#1C3A13"/>
  <path d="M3.5 16.5C3.5 16.5 6 15.5 6.5 13C4.5 14 3.5 16.5 3.5 16.5Z" fill="#1C3A13"/>
  <path d="M16.5 16.5C16.5 16.5 14 15.5 13.5 13C15.5 14 16.5 16.5 16.5 16.5Z" fill="#1C3A13"/>
  <circle cx="10" cy="10" r="2.5" fill="#1C3A13"/>
</svg>
